<?xml version="1.0" encoding="utf-8"?>
<!-- Generator: Adobe Illustrator 17.0.0, SVG Export Plug-In . SVG Version: 6.00 Build 0)  -->
<!DOCTYPE svg PUBLIC "-//W3C//DTD SVG 1.1//EN" "http://www.w3.org/Graphics/SVG/1.1/DTD/svg11.dtd">
<svg version="1.1"
	 id="svg3213" xmlns:dc="http://purl.org/dc/elements/1.1/" xmlns:cc="http://creativecommons.org/ns#" xmlns:rdf="http://www.w3.org/1999/02/22-rdf-syntax-ns#" xmlns:svg="http://www.w3.org/2000/svg" xmlns:sodipodi="http://sodipodi.sourceforge.net/DTD/sodipodi-0.dtd" xmlns:inkscape="http://www.inkscape.org/namespaces/inkscape" sodipodi:docname="logo_noShadow.svg" inkscape:export-filename="/Users/peter/Dropbox/voXup/voXupCode/webApp/voXup-web-test/resources/happy.png" inkscape:version="0.48.2 r9819" inkscape:export-xdpi="944.26227" inkscape:export-ydpi="944.26227"
	 xmlns="http://www.w3.org/2000/svg" xmlns:xlink="http://www.w3.org/1999/xlink" x="0px" y="0px" width="123.702px"
	 height="40.697px" viewBox="0 0 123.702 40.697" enable-background="new 0 0 123.702 40.697" xml:space="preserve">
<sodipodi:namedview  id="namedview3215" pagecolor="#ffffff" bordercolor="#666666" borderopacity="1" objecttolerance="10" gridtolerance="10" guidetolerance="10" showgrid="false" units="mm" showguides="true" inkscape:zoom="8" inkscape:cx="73.60222" inkscape:cy="38.249581" fit-margin-top="0" fit-margin-left="0" inkscape:pageopacity="0" inkscape:pageshadow="2" inkscape:window-width="1920" inkscape:window-height="1152" inkscape:guide-bbox="true" inkscape:window-x="1440" inkscape:window-y="22" inkscape:window-maximized="1" inkscape:current-layer="g3221" fit-margin-right="0" fit-margin-bottom="0">
	<sodipodi:guide  orientation="1,0" position="-858.49309,-377.45742" id="guide3223"></sodipodi:guide>
	<sodipodi:guide  orientation="1,0" position="-486.44584,-282.65903" id="guide3225"></sodipodi:guide>
	<sodipodi:guide  orientation="0,1" position="-605.53725,-242.421" id="guide3227"></sodipodi:guide>
	<sodipodi:guide  orientation="0,1" position="-762.76384,-766.83045" id="guide3229"></sodipodi:guide>
	<sodipodi:guide  orientation="0,1" position="66.742638,22.750006" id="guide4294"></sodipodi:guide>
</sodipodi:namedview>
<g id="g3221" transform="matrix(1.25,0,0,-1.25,-869.12301,818.15687)" inkscape:label="A6-Illustrator" inkscape:groupmode="layer">
	<path id="path3078" inkscape:connector-curvature="0" fill="#646464" d="M695.298,649.371h1.799l6.41-15.201l6.373,15.201h1.874
		l-8.191-19.568L695.298,649.371"/>
	<path id="path3080" inkscape:connector-curvature="0" fill="#646464" d="M724.126,649.671c1.312,0,2.568-0.256,3.767-0.768
		s2.237-1.206,3.111-2.081s1.568-1.918,2.081-3.13c0.512-1.212,0.768-2.48,0.768-3.805c0-1.337-0.256-2.612-0.768-3.824
		s-1.206-2.255-2.081-3.13c-0.875-0.862-1.912-1.556-3.111-2.081c-1.2-0.512-2.455-0.768-3.767-0.768
		c-2.687,0-4.979,0.956-6.879,2.868c-1.899,1.912-2.849,4.223-2.849,6.935c0,1.774,0.431,3.411,1.293,4.911
		c0.875,1.512,2.055,2.699,3.542,3.561C720.733,649.233,722.364,649.671,724.126,649.671 M716.066,639.887
		c0-2.237,0.787-4.155,2.362-5.754c1.587-1.587,3.499-2.38,5.735-2.38c2.237,0,4.142,0.793,5.717,2.38
		c1.587,1.599,2.38,3.517,2.38,5.754c0,2.224-0.794,4.13-2.38,5.717c-1.574,1.587-3.48,2.38-5.717,2.38s-4.148-0.793-5.735-2.38
		C716.853,644.017,716.066,642.111,716.066,639.887"/>
	<g id="text2989" transform="matrix(0.30494114,0,0,-0.30494114,819.34052,741.551)">
		<path id="path3068" inkscape:connector-curvature="0" fill="#646464" d="M-204.808,302.288h5.532v38.539
			c0,5.368,1.619,9.916,4.856,13.645s7.191,5.593,11.863,5.593c4.712,0,8.769-1.864,12.17-5.593
			c3.442-3.77,5.163-8.318,5.163-13.645v-38.539h5.532v38.539c0,6.761-2.192,12.58-6.577,17.456
			c-4.385,4.835-9.732,7.253-16.042,7.253c-6.269,0-11.596-2.418-15.981-7.253c-4.344-4.876-6.515-10.695-6.515-17.456
			L-204.808,302.288"/>
		<path id="path3070" inkscape:connector-curvature="0" fill="#646464" d="M-140.7,302.288h5.901
			c0.779,2.705,1.168,5.45,1.168,8.236v7.745c1.557-4.303,4.63-8.195,9.22-11.678c4.589-3.524,9.22-5.286,13.891-5.286
			c5.204,0,9.978,1.475,14.321,4.426c4.343,2.909,7.745,6.823,10.203,11.74c2.5,4.917,3.749,10.224,3.749,15.92
			c0,5.737-1.25,11.084-3.749,16.042c-2.459,4.917-5.86,8.831-10.203,11.74c-4.344,2.909-9.117,4.364-14.321,4.364
			c-4.753,0-9.425-1.68-14.014-5.04c-4.548-3.401-7.581-7.355-9.097-11.863v43.517h-5.532v-81.626
			C-139.163,307.001-139.676,304.255-140.7,302.288 M-126.809,314.581c-4.548,5.163-6.823,11.433-6.823,18.808
			c0,7.376,2.274,13.666,6.823,18.87c4.548,5.204,9.978,7.806,16.288,7.806c6.228,0,11.637-2.602,16.227-7.806
			c4.589-5.245,6.884-11.535,6.884-18.87c0-7.376-2.295-13.645-6.884-18.808c-4.589-5.163-9.998-7.745-16.227-7.745
			C-116.831,306.837-122.26,309.418-126.809,314.581"/>
	</g>
	<g id="text2993" transform="matrix(1.4935885,0,0,-1.4935885,1982.6463,1162.068)">
		<path id="path3006" sodipodi:nodetypes="cccccccc" inkscape:connector-curvature="0" fill="#CB6161" d="M-836.467,339.814h1.914
			l5.332,7.793l5.391-7.793h2.051l-6.387,9.297c-1.056-0.003-0.604-0.003-1.973,0L-836.467,339.814"/>
	</g>
	<g id="text3001" transform="matrix(1.4935885,0,0,-1.4935885,1982.5996,1162.0738)">
		<path id="path3011" sodipodi:nodetypes="ccccccc" inkscape:connector-curvature="0" fill="#61CB73" d="M-828.137,349.113
			l7.168,10.508H-823l-6.094-8.965l-6.133,8.965h-2.051l7.168-10.508"/>
	</g>
</g>
</svg>
